<svg width="16" height="15" viewBox="0 0 16 15" fill="none" xmlns="http://www.w3.org/2000/svg">
<path d="M5.60901 6.22467L7.98204 7.25622V15L5.60901 13.998V6.22467Z" fill="white"/>
<path d="M3.81128 8.01617L5.35735 6.10321L5.69894 6.26247L5.60903 9.59511L3.99105 11.1133L3.81128 8.01617Z" fill="white"/>
<path d="M2.62472 4.94938L3.88315 7.95545L3.99101 11.1741L2.08539 8.65383L0 7.77326V7.16598V3.7348L2.62472 4.94938Z" fill="white"/>
<path d="M0 7.77325L1.97753 8.0769V12.3583L0 11.4777V7.77325Z" fill="white"/>
<path d="M0.10791 3.61337L2.94836 2.21661L5.78881 4.22066L9.92364 6.22471L8.01802 7.16601L0.10791 3.61337Z" fill="white"/>
<path d="M2.94836 2.2166L6.54105 2.61134L5.7169 1.00202L7.98207 0L9.09668 0.546559L11.4338 1.57895L9.81578 2.61134L9.99556 4.58502L5.89668 4.3421L4.88994 3.61336L2.94836 2.2166Z" fill="white"/>
<path d="M9.70789 2.5582L10.6262 1.2328L15.9641 3.58299L13.8327 4.59655L9.70789 2.5582Z" fill="white"/>
<path d="M8.12585 7.2571L10.1053 6.26251L12.1169 8.1073L13.885 4.70626L16 3.70447V7.95548V11.417L14.0225 12.3583V8.6235L13.4112 9.41297L12.1169 11.2045L10.3551 9.65588V13.9676L8.12585 15V7.2571Z" fill="white"/>
</svg>
