<svg width="16" height="11" viewBox="0 0 16 11" fill="none" xmlns="http://www.w3.org/2000/svg">
<path fill-rule="evenodd" clip-rule="evenodd" d="M10.9167 6.06C11.5167 6.06 12.1833 6.15333 12.9167 6.34C13.7278 6.56167 14.3889 6.8475 14.9 7.1975C15.5 7.6175 15.8 8.09 15.8 8.615V10.435H11.6333V8.615C11.6333 7.62333 11.1778 6.78334 10.2667 6.095C10.4222 6.07167 10.6389 6.06 10.9167 6.06ZM5.38333 6.06C5.98334 6.06 6.64444 6.15333 7.36667 6.34C8.17778 6.56167 8.83333 6.8475 9.33333 7.1975C9.93334 7.6175 10.2333 8.09 10.2333 8.615V10.435H0.5V8.615C0.5 8.09 0.799997 7.6175 1.4 7.1975C1.91111 6.8475 2.57222 6.56167 3.38333 6.34C4.11667 6.15333 4.78333 6.06 5.38333 6.06ZM5.38333 4.625C5.01666 4.625 4.67222 4.52583 4.35 4.3275C4.02778 4.12917 3.77222 3.86084 3.58333 3.5225C3.39444 3.18417 3.3 2.8225 3.3 2.4375C3.3 2.0525 3.39444 1.69083 3.58333 1.3525C3.77222 1.01416 4.02778 0.745834 4.35 0.5475C4.67222 0.349166 5.01666 0.25 5.38333 0.25C5.75 0.25 6.09167 0.349166 6.40833 0.5475C6.725 0.745834 6.975 1.01125 7.15833 1.34375C7.34167 1.67625 7.43333 2.04083 7.43333 2.4375C7.43333 2.83417 7.34167 3.19875 7.15833 3.53125C6.975 3.86375 6.725 4.12917 6.40833 4.3275C6.09167 4.52583 5.75 4.625 5.38333 4.625ZM10.9167 4.625C10.55 4.625 10.2056 4.52583 9.88333 4.3275C9.56111 4.12917 9.30556 3.86084 9.11667 3.5225C8.92778 3.18417 8.83333 2.8225 8.83333 2.4375C8.83333 2.0525 8.92778 1.69083 9.11667 1.3525C9.30556 1.01416 9.56111 0.745834 9.88333 0.5475C10.2056 0.349166 10.55 0.25 10.9167 0.25C11.2833 0.25 11.6278 0.349166 11.95 0.5475C12.2722 0.745834 12.5278 1.01416 12.7167 1.3525C12.9056 1.69083 13 2.0525 13 2.4375C13 2.8225 12.9056 3.18417 12.7167 3.5225C12.5278 3.86084 12.2722 4.12917 11.95 4.3275C11.6278 4.52583 11.2833 4.625 10.9167 4.625Z" fill="#005073"/>
</svg>
